<svg xmlns="http://www.w3.org/2000/svg" width="38" height="38" viewBox="0 0 38 38" fill="none">
<path d="M26.9166 17.4167H14.8991L20.1241 12.2075C20.4222 11.9094 20.5897 11.505 20.5897 11.0833C20.5897 10.6617 20.4222 10.2573 20.1241 9.95918C19.8259 9.66103 19.4216 9.49353 18.9999 9.49353C18.5783 9.49353 18.1739 9.66103 17.8758 9.95918L9.95908 17.8758C9.81494 18.0264 9.70194 18.204 9.62658 18.3983C9.46822 18.7838 9.46822 19.2162 9.62658 19.6017C9.70194 19.796 9.81494 19.9736 9.95908 20.1242L17.8758 28.0408C18.0229 28.1892 18.1981 28.307 18.391 28.3874C18.5839 28.4678 18.7909 28.5092 18.9999 28.5092C19.2089 28.5092 19.4159 28.4678 19.6088 28.3874C19.8018 28.307 19.9769 28.1892 20.1241 28.0408C20.2725 27.8936 20.3903 27.7185 20.4707 27.5256C20.551 27.3326 20.5924 27.1257 20.5924 26.9167C20.5924 26.7077 20.551 26.5007 20.4707 26.3078C20.3903 26.1148 20.2725 25.9397 20.1241 25.7925L14.8991 20.5833H26.9166C27.3365 20.5833 27.7392 20.4165 28.0362 20.1196C28.3331 19.8227 28.4999 19.4199 28.4999 19C28.4999 18.5801 28.3331 18.1774 28.0362 17.8804C27.7392 17.5835 27.3365 17.4167 26.9166 17.4167Z" fill="#6D2BC1"/>
</svg>