<svg xmlns="http://www.w3.org/2000/svg" width="48" height="69" viewBox="0 0 48 69" fill="none">
<g clip-path="url(#clip0_323_246)">
<path d="M37.125 0.75H10.125C7.43968 0.75 4.86435 1.81674 2.96554 3.71554C1.06674 5.61435 0 8.18968 0 10.875V58.125C0 60.8103 1.06674 63.3857 2.96554 65.2845C4.86435 67.1833 7.43968 68.25 10.125 68.25H37.125C39.8103 68.25 42.3857 67.1833 44.2845 65.2845C46.1833 63.3857 47.25 60.8103 47.25 58.125V10.875C47.25 8.18968 46.1833 5.61435 44.2845 3.71554C42.3857 1.81674 39.8103 0.75 37.125 0.75ZM40.5 58.125C40.5 59.0201 40.1444 59.8786 39.5115 60.5115C38.8786 61.1444 38.0201 61.5 37.125 61.5H10.125C9.22989 61.5 8.37145 61.1444 7.73852 60.5115C7.10558 59.8786 6.75 59.0201 6.75 58.125V54.75H40.5V58.125ZM40.5 48H6.75V10.875C6.75 9.97989 7.10558 9.12145 7.73852 8.48852C8.37145 7.85558 9.22989 7.5 10.125 7.5H37.125C38.0201 7.5 38.8786 7.85558 39.5115 8.48852C40.1444 9.12145 40.5 9.97989 40.5 10.875V48Z" fill="#6D2BC1"/>
</g>
<defs>
<clipPath id="clip0_323_246">
<rect width="48" height="69" fill="white"/>
</clipPath>
</defs>
</svg>