<svg xmlns="http://www.w3.org/2000/svg" width="59" height="47" viewBox="0 0 59 47" fill="none">
<path d="M49.625 0.5H9.375C7.08751 0.5 4.89371 1.4087 3.2762 3.0262C1.6587 4.6437 0.75 6.83751 0.75 9.125V37.875C0.75 40.1625 1.6587 42.3563 3.2762 43.9738C4.89371 45.5913 7.08751 46.5 9.375 46.5H49.625C51.9125 46.5 54.1063 45.5913 55.7238 43.9738C57.3413 42.3563 58.25 40.1625 58.25 37.875V9.125C58.25 6.83751 57.3413 4.6437 55.7238 3.0262C54.1063 1.4087 51.9125 0.5 49.625 0.5ZM9.375 6.25H49.625C50.3875 6.25 51.1188 6.5529 51.6579 7.09207C52.1971 7.63123 52.5 8.3625 52.5 9.125L29.5 23.155L6.5 9.125C6.5 8.3625 6.8029 7.63123 7.34207 7.09207C7.88124 6.5529 8.6125 6.25 9.375 6.25ZM52.5 37.875C52.5 38.6375 52.1971 39.3688 51.6579 39.9079C51.1188 40.4471 50.3875 40.75 49.625 40.75H9.375C8.6125 40.75 7.88124 40.4471 7.34207 39.9079C6.8029 39.3688 6.5 38.6375 6.5 37.875V15.68L28.005 28.8187C28.4421 29.0711 28.9378 29.2039 29.4425 29.2039C29.9472 29.2039 30.4429 29.0711 30.88 28.8187L52.5 15.68V37.875Z" fill="#6D2BC1"/>
</svg>