<svg xmlns="http://www.w3.org/2000/svg" width="75" height="75" viewBox="0 0 75 75" fill="none">
<path d="M41.5625 38.1875C43.2299 36.7442 44.5673 34.959 45.484 32.9532C46.4006 30.9474 46.875 28.7678 46.875 26.5625C46.875 22.4185 45.2288 18.4442 42.2985 15.514C39.3683 12.5837 35.394 10.9375 31.25 10.9375C27.106 10.9375 23.1317 12.5837 20.2015 15.514C17.2712 18.4442 15.625 22.4185 15.625 26.5625C15.625 28.7678 16.0994 30.9474 17.016 32.9532C17.9327 34.959 19.2701 36.7442 20.9375 38.1875C16.5629 40.1684 12.8515 43.3673 10.2468 47.4017C7.64217 51.4361 6.2546 56.1353 6.25 60.9375C6.25 61.7663 6.57924 62.5612 7.16529 63.1472C7.75134 63.7333 8.5462 64.0625 9.375 64.0625C10.2038 64.0625 10.9987 63.7333 11.5847 63.1472C12.1708 62.5612 12.5 61.7663 12.5 60.9375C12.5 55.9647 14.4754 51.1956 17.9917 47.6792C21.5081 44.1629 26.2772 42.1875 31.25 42.1875C36.2228 42.1875 40.9919 44.1629 44.5083 47.6792C48.0246 51.1956 50 55.9647 50 60.9375C50 61.7663 50.3292 62.5612 50.9153 63.1472C51.5013 63.7333 52.2962 64.0625 53.125 64.0625C53.9538 64.0625 54.7487 63.7333 55.3347 63.1472C55.9208 62.5612 56.25 61.7663 56.25 60.9375C56.2454 56.1353 54.8578 51.4361 52.2532 47.4017C49.6485 43.3673 45.9371 40.1684 41.5625 38.1875ZM31.25 35.9375C29.3958 35.9375 27.5832 35.3877 26.0415 34.3575C24.4998 33.3274 23.2982 31.8632 22.5886 30.1502C21.8791 28.4371 21.6934 26.5521 22.0551 24.7335C22.4169 22.915 23.3098 21.2445 24.6209 19.9334C25.932 18.6223 27.6025 17.7294 29.421 17.3676C31.2396 17.0059 33.1246 17.1916 34.8377 17.9011C36.5507 18.6107 38.0149 19.8123 39.045 21.354C40.0752 22.8957 40.625 24.7083 40.625 26.5625C40.625 29.0489 39.6373 31.4335 37.8791 33.1916C36.121 34.9498 33.7364 35.9375 31.25 35.9375ZM65.3438 37.5L67.8437 35.0312C68.1351 34.7399 68.3662 34.394 68.5239 34.0133C68.6816 33.6326 68.7628 33.2246 68.7628 32.8125C68.7628 32.4004 68.6816 31.9924 68.5239 31.6117C68.3662 31.231 68.1351 30.8851 67.8437 30.5938C67.5524 30.3024 67.2065 30.0713 66.8258 29.9136C66.4451 29.7559 66.0371 29.6747 65.625 29.6747C65.2129 29.6747 64.8049 29.7559 64.4242 29.9136C64.0435 30.0713 63.6976 30.3024 63.4063 30.5938L60.9375 33.0938L58.4687 30.5938C58.1774 30.3024 57.8315 30.0713 57.4508 29.9136C57.0701 29.7559 56.6621 29.6747 56.25 29.6747C55.4178 29.6747 54.6197 30.0053 54.0313 30.5938C53.7399 30.8851 53.5088 31.231 53.3511 31.6117C53.1934 31.9924 53.1122 32.4004 53.1122 32.8125C53.1122 33.6447 53.4428 34.4428 54.0313 35.0312L56.5312 37.5L54.0313 39.9688C53.7383 40.2593 53.5059 40.6049 53.3472 40.9857C53.1886 41.3665 53.1069 41.775 53.1069 42.1875C53.1069 42.6 53.1886 43.0085 53.3472 43.3893C53.5059 43.7701 53.7383 44.1157 54.0313 44.4062C54.3218 44.6992 54.6674 44.9316 55.0482 45.0903C55.429 45.2489 55.8375 45.3306 56.25 45.3306C56.6625 45.3306 57.071 45.2489 57.4518 45.0903C57.8326 44.9316 58.1782 44.6992 58.4687 44.4062L60.9375 41.9062L63.4063 44.4062C63.6968 44.6992 64.0424 44.9316 64.4232 45.0903C64.804 45.2489 65.2125 45.3306 65.625 45.3306C66.0375 45.3306 66.446 45.2489 66.8268 45.0903C67.2076 44.9316 67.5532 44.6992 67.8437 44.4062C68.1367 44.1157 68.3691 43.7701 68.5278 43.3893C68.6864 43.0085 68.7681 42.6 68.7681 42.1875C68.7681 41.775 68.6864 41.3665 68.5278 40.9857C68.3691 40.6049 68.1367 40.2593 67.8437 39.9688L65.3438 37.5Z" fill="#6D2BC1"/>
</svg>