<svg xmlns="http://www.w3.org/2000/svg" width="75" height="76" viewBox="0 0 75 76" fill="none">
<path d="M46.2812 38.7768C48.2593 36.6303 49.3736 33.8153 49.4062 30.8824C49.4062 27.7168 48.1617 24.6808 45.9464 22.4423C43.7312 20.2038 40.7266 18.9463 37.5938 18.9463C34.4609 18.9463 31.4563 20.2038 29.2411 22.4423C27.0258 24.6808 25.7812 27.7168 25.7812 30.8824C25.8139 33.8153 26.9282 36.6303 28.9062 38.7768C26.152 40.1626 23.7819 42.2185 22.0091 44.7595C20.2363 47.3005 19.1163 50.247 18.75 53.3339C18.6588 54.1713 18.9006 55.0111 19.4222 55.6684C19.9438 56.3258 20.7024 56.7468 21.5312 56.8389C22.3601 56.931 23.1911 56.6867 23.8416 56.1597C24.4922 55.6326 24.9088 54.866 25 54.0286C25.3729 50.9692 26.8401 48.1532 29.1253 46.1111C31.4104 44.069 34.3557 42.9417 37.4062 42.9417C40.4568 42.9417 43.4021 44.069 45.6872 46.1111C47.9724 48.1532 49.4396 50.9692 49.8125 54.0286C49.8994 54.8382 50.2926 55.5827 50.9098 56.1064C51.5271 56.6301 52.3208 56.8925 53.125 56.8389H53.4688C54.2879 56.7437 55.0366 56.3251 55.5518 55.6745C56.0669 55.0239 56.3066 54.1939 56.2188 53.3654C55.8796 50.2948 54.7949 47.3564 53.0613 44.8113C51.3276 42.2662 48.9986 40.1933 46.2812 38.7768ZM37.5 36.5032C36.3998 36.5032 35.3244 36.1735 34.4096 35.5559C33.4949 34.9383 32.7819 34.0605 32.3609 33.0334C31.9399 32.0064 31.8298 30.8762 32.0444 29.7859C32.259 28.6956 32.7888 27.6941 33.5667 26.908C34.3446 26.1219 35.3358 25.5866 36.4148 25.3697C37.4938 25.1528 38.6123 25.2641 39.6287 25.6896C40.6451 26.115 41.5138 26.8354 42.125 27.7597C42.7363 28.6841 43.0625 29.7708 43.0625 30.8824C43.0625 32.3732 42.4765 33.8028 41.4333 34.8569C40.3901 35.911 38.9753 36.5032 37.5 36.5032ZM59.375 6.31537H15.625C13.1386 6.31537 10.754 7.31343 8.99587 9.09C7.23772 10.8666 6.25 13.2761 6.25 15.7885V59.9967C6.25 62.5091 7.23772 64.9186 8.99587 66.6952C10.754 68.4718 13.1386 69.4698 15.625 69.4698H59.375C61.8614 69.4698 64.246 68.4718 66.0041 66.6952C67.7623 64.9186 68.75 62.5091 68.75 59.9967V15.7885C68.75 13.2761 67.7623 10.8666 66.0041 9.09C64.246 7.31343 61.8614 6.31537 59.375 6.31537ZM62.5 59.9967C62.5 60.8341 62.1708 61.6373 61.5847 62.2295C60.9987 62.8217 60.2038 63.1544 59.375 63.1544H15.625C14.7962 63.1544 14.0013 62.8217 13.4153 62.2295C12.8292 61.6373 12.5 60.8341 12.5 59.9967V15.7885C12.5 14.9511 12.8292 14.1479 13.4153 13.5557C14.0013 12.9635 14.7962 12.6308 15.625 12.6308H59.375C60.2038 12.6308 60.9987 12.9635 61.5847 13.5557C62.1708 14.1479 62.5 14.9511 62.5 15.7885V59.9967Z" fill="#6D2BC1"/>
</svg>